# xmcd CD database file
#
# Track frame offsets:
#	150
#	6452
#	13857
#	20752
#	32940
#	38587
#	51480
#	58750
#	66077
#	70222
#	78422
#	87067
#
# Disc length: 1296 seconds
#
# Revision: 0
# Processed by: cddbd v1.5.2PL0 Copyright (c) Steve Scherf et al.
# Submitted via: CDex 1.51
#
DISCID=a1050e0c
DTITLE=Howard Morgen - The Ellington Collection for Solo Guitar
DYEAR=1900
DGENRE=Jazz
TTITLE0=In A Mellow Tone
TTITLE1=Don't Get Around Much Anymore
TTITLE2=Do Nothin' Till You Hear From Me
TTITLE3=In A Sentimental Mood
TTITLE4=Take The A Train
TTITLE5=Sophisticated Lady
TTITLE6=Satin Doll
TTITLE7=Mood Indigo
TTITLE8=It Don't Mean A Thing (If It Ain't Got That Swing)
TTITLE9=I Got It Bad (And That Ain't Good)
TTITLE10=Caravan
TTITLE11=Prelude To A Kiss
EXTD=
EXTT0=
EXTT1=
EXTT2=
EXTT3=
EXTT4=
EXTT5=
EXTT6=
EXTT7=
EXTT8=
EXTT9=
EXTT10=
EXTT11=
PLAYORDER=
